<svg version="1.1" xmlns="http://www.w3.org/2000/svg" viewBox="0 0 777.7168045043945 489.00001525878906" width="777.7168045043945" height="489.00001525878906">
  <!-- svg-source:excalidraw -->
  
  <defs>
    <style class="style-fonts">
      @font-face {
        font-family: "Virgil";
        src: url("https://excalidraw.com/Virgil.woff2");
      }
      @font-face {
        font-family: "Cascadia";
        src: url("https://excalidraw.com/Cascadia.woff2");
      }
    </style>
  </defs>
  <rect x="0" y="0" width="777.7168045043945" height="489.00001525878906" fill="#ffffff"></rect><g stroke-linecap="round"><g transform="translate(119.71674346923828 88.66667175292969) rotate(0 -2.842170943040401e-14 193.33334350585938)"><path d="M0 0 C0 133.68, 0 267.36, 0 386.67 M0 0 C0 127.6, 0 255.2, 0 386.67" stroke="#000000" stroke-width="1" fill="none"></path></g></g><mask></mask><g stroke-linecap="round"><g transform="translate(179.0500564575196 89.33332824707031) rotate(0 -2.842170943040401e-14 193.33334350585938)"><path d="M0 0 C0 153.5, 0 307, 0 386.67 M0 0 C0 104.95, 0 209.91, 0 386.67" stroke="#000000" stroke-width="1" fill="none"></path></g></g><mask></mask><g stroke-linecap="round"><g transform="translate(119.71674346923828 87.33332824707031) rotate(0 29.333328247070312 0)"><path d="M0 0 C18.55 0, 37.11 0, 58.67 0 M0 0 C14.57 0, 29.15 0, 58.67 0" stroke="#000000" stroke-width="1" fill="none"></path></g></g><mask></mask><g stroke-linecap="round"><g transform="translate(120.38338470458984 134.99998474121094) rotate(0 29.333328247070312 0)"><path d="M0 0 C20.92 0, 41.84 0, 58.67 0 M0 0 C15.15 0, 30.29 0, 58.67 0" stroke="#000000" stroke-width="1" fill="none"></path></g></g><mask></mask><g stroke-linecap="round"><g transform="translate(119.38340759277344 180.83331298828125) rotate(0 29.333328247070312 0)"><path d="M0 0 C18.41 0, 36.82 0, 58.67 0 M0 0 C17.24 0, 34.49 0, 58.67 0" stroke="#000000" stroke-width="1" fill="none"></path></g></g><mask></mask><g stroke-linecap="round"><g transform="translate(120.050048828125 228.49996948242188) rotate(0 29.333328247070312 0)"><path d="M0 0 C18.22 0, 36.44 0, 58.67 0 M0 0 C20.4 0, 40.8 0, 58.67 0" stroke="#000000" stroke-width="1" fill="none"></path></g></g><mask></mask><g stroke-linecap="round"><g transform="translate(119.88341903686523 275.0833206176758) rotate(0 29.333328247070312 0)"><path d="M0 0 C15 0, 30 0, 58.67 0 M0 0 C23.19 0, 46.38 0, 58.67 0" stroke="#000000" stroke-width="1" fill="none"></path></g></g><mask></mask><g stroke-linecap="round"><g transform="translate(120.5500602722168 322.7499771118164) rotate(0 29.333328247070312 0)"><path d="M0 0 C13.46 0, 26.93 0, 58.67 0 M0 0 C21.31 0, 42.63 0, 58.67 0" stroke="#000000" stroke-width="1" fill="none"></path></g></g><mask></mask><g stroke-linecap="round"><g transform="translate(119.55008316040039 368.5833053588867) rotate(0 29.333328247070312 0)"><path d="M0 0 C20 0, 40 0, 58.67 0 M0 0 C17 0, 33.99 0, 58.67 0" stroke="#000000" stroke-width="1" fill="none"></path></g></g><mask></mask><g stroke-linecap="round"><g transform="translate(120.21672439575195 416.24996185302734) rotate(0 29.333328247070312 0)"><path d="M0 0 C13.94 0, 27.88 0, 58.67 0 M0 0 C15.67 0, 31.34 0, 58.67 0" stroke="#000000" stroke-width="1" fill="none"></path></g></g><mask></mask><g stroke-linecap="round"><g transform="translate(240.46673774719238 89.66664123535156) rotate(0 0 193.33334350585938)"><path d="M0 0 C0 93.74, 0 187.47, 0 386.67 M0 0 C0 138.81, 0 277.63, 0 386.67" stroke="#000000" stroke-width="1" fill="none"></path></g></g><mask></mask><g stroke-linecap="round"><g transform="translate(299.80005073547363 90.33329772949219) rotate(0 0 193.33334350585938)"><path d="M0 0 C0 79.11, 0 158.22, 0 386.67 M0 0 C0 104.69, 0 209.38, 0 386.67" stroke="#000000" stroke-width="1" fill="none"></path></g></g><mask></mask><g stroke-linecap="round"><g transform="translate(240.46673774719238 88.33329772949219) rotate(0 29.333328247070312 0)"><path d="M0 0 C19.9 0, 39.8 0, 58.67 0 M0 0 C14.06 0, 28.12 0, 58.67 0" stroke="#000000" stroke-width="1" fill="none"></path></g></g><mask></mask><g stroke-linecap="round"><g transform="translate(241.13337898254395 135.9999542236328) rotate(0 29.333328247070312 0)"><path d="M0 0 C17.53 0, 35.05 0, 58.67 0 M0 0 C14.63 0, 29.27 0, 58.67 0" stroke="#000000" stroke-width="1" fill="none"></path></g></g><mask></mask><g stroke-linecap="round"><g transform="translate(240.13340187072754 181.83328247070312) rotate(0 29.333328247070312 0)"><path d="M0 0 C16.42 0, 32.84 0, 58.67 0 M0 0 C14.04 0, 28.08 0, 58.67 0" stroke="#000000" stroke-width="1" fill="none"></path></g></g><mask></mask><g stroke-linecap="round"><g transform="translate(240.8000431060791 229.49993896484375) rotate(0 29.333328247070312 0)"><path d="M0 0 C13.35 0, 26.7 0, 58.67 0 M0 0 C17.49 0, 34.98 0, 58.67 0" stroke="#000000" stroke-width="1" fill="none"></path></g></g><mask></mask><g stroke-linecap="round"><g transform="translate(240.63341331481934 276.08329010009766) rotate(0 29.333328247070312 0)"><path d="M0 0 C19.94 0, 39.88 0, 58.67 0 M0 0 C20.13 0, 40.27 0, 58.67 0" stroke="#000000" stroke-width="1" fill="none"></path></g></g><mask></mask><g stroke-linecap="round"><g transform="translate(241.3000545501709 323.7499465942383) rotate(0 29.333328247070312 0)"><path d="M0 0 C21.63 0, 43.26 0, 58.67 0 M0 0 C21.6 0, 43.21 0, 58.67 0" stroke="#000000" stroke-width="1" fill="none"></path></g></g><mask></mask><g stroke-linecap="round"><g transform="translate(240.3000774383545 369.5832748413086) rotate(0 29.333328247070312 0)"><path d="M0 0 C17.33 0, 34.67 0, 58.67 0 M0 0 C23.08 0, 46.17 0, 58.67 0" stroke="#000000" stroke-width="1" fill="none"></path></g></g><mask></mask><g stroke-linecap="round"><g transform="translate(240.96671867370605 417.2499313354492) rotate(0 29.333328247070312 0)"><path d="M0 0 C23.32 0, 46.64 0, 58.67 0 M0 0 C16.48 0, 32.95 0, 58.67 0" stroke="#000000" stroke-width="1" fill="none"></path></g></g><mask></mask><g stroke-linecap="round"><g transform="translate(366.4250535964966 87.5) rotate(0 0 193.33334350585938)"><path d="M0 0 C0 144.3, 0 288.6, 0 386.67 M0 0 C0 142.71, 0 285.41, 0 386.67" stroke="#000000" stroke-width="1" fill="none"></path></g></g><mask></mask><g stroke-linecap="round"><g transform="translate(425.75836658477783 88.16665649414062) rotate(0 0 193.33334350585938)"><path d="M0 0 C0 112.55, 0 225.09, 0 386.67 M0 0 C0 80.4, 0 160.8, 0 386.67" stroke="#000000" stroke-width="1" fill="none"></path></g></g><mask></mask><g stroke-linecap="round"><g transform="translate(366.4250535964966 86.16665649414062) rotate(0 29.333328247070312 0)"><path d="M0 0 C14.05 0, 28.09 0, 58.67 0 M0 0 C22.81 0, 45.62 0, 58.67 0" stroke="#000000" stroke-width="1" fill="none"></path></g></g><mask></mask><g stroke-linecap="round"><g transform="translate(367.09169483184814 133.83331298828125) rotate(0 29.333328247070312 0)"><path d="M0 0 C20.01 0, 40.01 0, 58.67 0 M0 0 C20.36 0, 40.71 0, 58.67 0" stroke="#000000" stroke-width="1" fill="none"></path></g></g><mask></mask><g stroke-linecap="round"><g transform="translate(366.09171772003174 179.66664123535156) rotate(0 29.333328247070312 0)"><path d="M0 0 C14.84 0, 29.67 0, 58.67 0 M0 0 C11.78 0, 23.57 0, 58.67 0" stroke="#000000" stroke-width="1" fill="none"></path></g></g><mask></mask><g stroke-linecap="round"><g transform="translate(366.7583589553833 227.3332977294922) rotate(0 29.333328247070312 0)"><path d="M0 0 C15.27 0, 30.53 0, 58.67 0 M0 0 C19.11 0, 38.22 0, 58.67 0" stroke="#000000" stroke-width="1" fill="none"></path></g></g><mask></mask><g stroke-linecap="round"><g transform="translate(366.59172916412354 273.9166488647461) rotate(0 29.333328247070312 0)"><path d="M0 0 C20.67 0, 41.35 0, 58.67 0 M0 0 C16.42 0, 32.85 0, 58.67 0" stroke="#000000" stroke-width="1" fill="none"></path></g></g><mask></mask><g stroke-linecap="round"><g transform="translate(367.2583703994751 321.5833053588867) rotate(0 29.333328247070312 0)"><path d="M0 0 C15.66 0, 31.32 0, 58.67 0 M0 0 C12.33 0, 24.67 0, 58.67 0" stroke="#000000" stroke-width="1" fill="none"></path></g></g><mask></mask><g stroke-linecap="round"><g transform="translate(366.2583932876587 367.41663360595703) rotate(0 29.333328247070312 0)"><path d="M0 0 C12.79 0, 25.59 0, 58.67 0 M0 0 C13.29 0, 26.58 0, 58.67 0" stroke="#000000" stroke-width="1" fill="none"></path></g></g><mask></mask><g stroke-linecap="round"><g transform="translate(366.92503452301025 415.08329010009766) rotate(0 29.333328247070312 0)"><path d="M0 0 C18.44 0, 36.88 0, 58.67 0 M0 0 C19.88 0, 39.77 0, 58.67 0" stroke="#000000" stroke-width="1" fill="none"></path></g></g><mask></mask><g stroke-linecap="round"><g transform="translate(487.1750478744507 88.49996948242188) rotate(0 0 193.33334350585938)"><path d="M0 0 C0 132.87, 0 265.75, 0 386.67 M0 0 C0 133.39, 0 266.78, 0 386.67" stroke="#000000" stroke-width="1" fill="none"></path></g></g><mask></mask><g stroke-linecap="round"><g transform="translate(546.5083608627319 89.1666259765625) rotate(0 0 193.33334350585938)"><path d="M0 0 C0 142.71, 0 285.41, 0 386.67 M0 0 C0 152.83, 0 305.66, 0 386.67" stroke="#000000" stroke-width="1" fill="none"></path></g></g><mask></mask><g stroke-linecap="round"><g transform="translate(487.1750478744507 87.1666259765625) rotate(0 29.333328247070312 0)"><path d="M0 0 C12.2 0, 24.4 0, 58.67 0 M0 0 C18.85 0, 37.71 0, 58.67 0" stroke="#000000" stroke-width="1" fill="none"></path></g></g><mask></mask><g stroke-linecap="round"><g transform="translate(487.84168910980225 134.83328247070312) rotate(0 29.333328247070312 0)"><path d="M0 0 C22.81 0, 45.62 0, 58.67 0 M0 0 C22.23 0, 44.46 0, 58.67 0" stroke="#000000" stroke-width="1" fill="none"></path></g></g><mask></mask><g stroke-linecap="round"><g transform="translate(486.84171199798584 180.66661071777344) rotate(0 29.333328247070312 0)"><path d="M0 0 C20.36 0, 40.71 0, 58.67 0 M0 0 C11.86 0, 23.71 0, 58.67 0" stroke="#000000" stroke-width="1" fill="none"></path></g></g><mask></mask><g stroke-linecap="round"><g transform="translate(487.5083532333374 228.33326721191406) rotate(0 29.333328247070312 0)"><path d="M0 0 C11.78 0, 23.57 0, 58.67 0 M0 0 C16.31 0, 32.62 0, 58.67 0" stroke="#000000" stroke-width="1" fill="none"></path></g></g><mask></mask><g stroke-linecap="round"><g transform="translate(487.34172344207764 274.91661834716797) rotate(0 29.333328247070312 0)"><path d="M0 0 C19.11 0, 38.22 0, 58.67 0 M0 0 C15.93 0, 31.86 0, 58.67 0" stroke="#000000" stroke-width="1" fill="none"></path></g></g><mask></mask><g stroke-linecap="round"><g transform="translate(488.0083646774292 322.5832748413086) rotate(0 29.333328247070312 0)"><path d="M0 0 C16.42 0, 32.85 0, 58.67 0 M0 0 C14.14 0, 28.29 0, 58.67 0" stroke="#000000" stroke-width="1" fill="none"></path></g></g><mask></mask><g stroke-linecap="round"><g transform="translate(487.0083875656128 368.4166030883789) rotate(0 29.333328247070312 0)"><path d="M0 0 C12.33 0, 24.67 0, 58.67 0 M0 0 C13.52 0, 27.04 0, 58.67 0" stroke="#000000" stroke-width="1" fill="none"></path></g></g><mask></mask><g stroke-linecap="round"><g transform="translate(487.67502880096436 416.08325958251953) rotate(0 29.333328247070312 0)"><path d="M0 0 C13.29 0, 26.58 0, 58.67 0 M0 0 C14.58 0, 29.16 0, 58.67 0" stroke="#000000" stroke-width="1" fill="none"></path></g></g><mask></mask><g stroke-linecap="round"><g transform="translate(692.8001117706299 91.66667175292969) rotate(0 0 193.33334350585938)"><path d="M0 0 C0 97.98, 0 195.95, 0 386.67 M0 0 C0 132.88, 0 265.76, 0 386.67" stroke="#000000" stroke-width="1" fill="none"></path></g></g><mask></mask><g stroke-linecap="round"><g transform="translate(752.1334247589111 92.33332824707031) rotate(0 0 193.33334350585938)"><path d="M0 0 C0 86.6, 0 173.21, 0 386.67 M0 0 C0 137.6, 0 275.2, 0 386.67" stroke="#000000" stroke-width="1" fill="none"></path></g></g><mask></mask><g stroke-linecap="round"><g transform="translate(692.8001117706299 90.33332824707031) rotate(0 29.333328247070312 0)"><path d="M0 0 C22.9 0, 45.8 0, 58.67 0 M0 0 C23.29 0, 46.58 0, 58.67 0" stroke="#000000" stroke-width="1" fill="none"></path></g></g><mask></mask><g stroke-linecap="round"><g transform="translate(693.4667530059814 137.99998474121094) rotate(0 29.333328247070312 0)"><path d="M0 0 C15.8 0, 31.61 0, 58.67 0 M0 0 C22.42 0, 44.84 0, 58.67 0" stroke="#000000" stroke-width="1" fill="none"></path></g></g><mask></mask><g stroke-linecap="round"><g transform="translate(692.466775894165 183.83331298828125) rotate(0 29.333328247070312 0)"><path d="M0 0 C14.42 0, 28.85 0, 58.67 0 M0 0 C17.92 0, 35.84 0, 58.67 0" stroke="#000000" stroke-width="1" fill="none"></path></g></g><mask></mask><g stroke-linecap="round"><g transform="translate(693.1334171295166 231.49996948242188) rotate(0 29.333328247070312 0)"><path d="M0 0 C21.19 0, 42.38 0, 58.67 0 M0 0 C11.84 0, 23.68 0, 58.67 0" stroke="#000000" stroke-width="1" fill="none"></path></g></g><mask></mask><g stroke-linecap="round"><g transform="translate(692.9667873382568 278.0833206176758) rotate(0 29.333328247070312 0)"><path d="M0 0 C23.1 0, 46.21 0, 58.67 0 M0 0 C18.56 0, 37.12 0, 58.67 0" stroke="#000000" stroke-width="1" fill="none"></path></g></g><mask></mask><g stroke-linecap="round"><g transform="translate(693.6334285736084 325.7499771118164) rotate(0 29.333328247070312 0)"><path d="M0 0 C13.55 0, 27.1 0, 58.67 0 M0 0 C16.69 0, 33.39 0, 58.67 0" stroke="#000000" stroke-width="1" fill="none"></path></g></g><mask></mask><g stroke-linecap="round"><g transform="translate(692.633451461792 371.5833053588867) rotate(0 29.333328247070312 0)"><path d="M0 0 C13.35 0, 26.71 0, 58.67 0 M0 0 C16.14 0, 32.27 0, 58.67 0" stroke="#000000" stroke-width="1" fill="none"></path></g></g><mask></mask><g stroke-linecap="round"><g transform="translate(693.3000926971436 419.24996185302734) rotate(0 29.333328247070312 0)"><path d="M0 0 C18.61 0, 37.22 0, 58.67 0 M0 0 C14.72 0, 29.44 0, 58.67 0" stroke="#000000" stroke-width="1" fill="none"></path></g></g><mask></mask><g stroke-linecap="round" transform="translate(104.3833999633789 76.66667175292969) rotate(0 331.6667022705078 36.33332824707031)"><path d="M18.17 0 M18.17 0 C243.58 0, 468.99 0, 645.17 0 M18.17 0 C255.42 0, 492.67 0, 645.17 0 M645.17 0 C657.28 0, 663.33 6.06, 663.33 18.17 M645.17 0 C657.28 0, 663.33 6.06, 663.33 18.17 M663.33 18.17 C663.33 28.94, 663.33 39.71, 663.33 54.5 M663.33 18.17 C663.33 29.07, 663.33 39.97, 663.33 54.5 M663.33 54.5 C663.33 66.61, 657.28 72.67, 645.17 72.67 M663.33 54.5 C663.33 66.61, 657.28 72.67, 645.17 72.67 M645.17 72.67 C420.22 72.67, 195.28 72.67, 18.17 72.67 M645.17 72.67 C492.48 72.67, 339.8 72.67, 18.17 72.67 M18.17 72.67 C6.06 72.67, 0 66.61, 0 54.5 M18.17 72.67 C6.06 72.67, 0 66.61, 0 54.5 M0 54.5 C0 46.05, 0 37.6, 0 18.17 M0 54.5 C0 41.54, 0 28.58, 0 18.17 M0 18.17 C0 6.06, 6.06 0, 18.17 0 M0 18.17 C0 6.06, 6.06 0, 18.17 0" stroke="#c92a2a" stroke-width="1" fill="none"></path></g><g stroke-linecap="round"><g transform="translate(599.0500564575195 276.6666717529297) rotate(0 22 0)"><path d="M0 0 C7.33 0, 36.67 0, 44 0" stroke="#000000" stroke-width="1.5" fill="none" stroke-dasharray="8 9"></path></g></g><mask></mask><g stroke-linecap="round"><g transform="translate(119.05005645751953 40.666656494140625) rotate(0 315.3333740234375 0)"><path d="M0 0 C144.26 0, 288.53 0, 630.67 0 M0 0 C157.73 0, 315.47 0, 630.67 0" stroke="#000000" stroke-width="1" fill="none"></path></g><g transform="translate(119.05005645751953 40.666656494140625) rotate(0 315.3333740234375 0)"><path d="M28.19 -10.26 C21.74 -7.91, 15.29 -5.57, 0 0 M28.19 -10.26 C21.14 -7.69, 14.09 -5.13, 0 0" stroke="#000000" stroke-width="1" fill="none"></path></g><g transform="translate(119.05005645751953 40.666656494140625) rotate(0 315.3333740234375 0)"><path d="M28.19 10.26 C21.74 7.91, 15.29 5.57, 0 0 M28.19 10.26 C21.14 7.69, 14.09 5.13, 0 0" stroke="#000000" stroke-width="1" fill="none"></path></g><g transform="translate(119.05005645751953 40.666656494140625) rotate(0 315.3333740234375 0)"><path d="M602.48 10.26 C608.92 7.91, 615.37 5.57, 630.67 0 M602.48 10.26 C609.53 7.69, 616.58 5.13, 630.67 0" stroke="#000000" stroke-width="1" fill="none"></path></g><g transform="translate(119.05005645751953 40.666656494140625) rotate(0 315.3333740234375 0)"><path d="M602.48 -10.26 C608.92 -7.91, 615.37 -5.57, 630.67 0 M602.48 -10.26 C609.53 -7.69, 616.58 -5.13, 630.67 0" stroke="#000000" stroke-width="1" fill="none"></path></g></g><mask></mask><g stroke-linecap="round"><g transform="translate(56.04999542236328 94.66667175292969) rotate(0 0 190.66668701171875)"><path d="M0 0 C0 149.66, 0 299.31, 0 381.33 M0 0 C0 112.95, 0 225.9, 0 381.33" stroke="#000000" stroke-width="1" fill="none"></path></g><g transform="translate(56.04999542236328 94.66667175292969) rotate(0 0 190.66668701171875)"><path d="M10.26 28.19 C6.23 17.13, 2.21 6.06, 0 0 M10.26 28.19 C7.22 19.84, 4.18 11.49, 0 0" stroke="#000000" stroke-width="1" fill="none"></path></g><g transform="translate(56.04999542236328 94.66667175292969) rotate(0 0 190.66668701171875)"><path d="M-10.26 28.19 C-6.23 17.13, -2.21 6.06, 0 0 M-10.26 28.19 C-7.22 19.84, -4.18 11.49, 0 0" stroke="#000000" stroke-width="1" fill="none"></path></g><g transform="translate(56.04999542236328 94.66667175292969) rotate(0 0 190.66668701171875)"><path d="M-10.26 353.14 C-6.23 364.21, -2.21 375.27, 0 381.33 M-10.26 353.14 C-7.22 361.49, -4.18 369.84, 0 381.33" stroke="#000000" stroke-width="1" fill="none"></path></g><g transform="translate(56.04999542236328 94.66667175292969) rotate(0 0 190.66668701171875)"><path d="M10.26 353.14 C6.23 364.21, 2.21 375.27, 0 381.33 M10.26 353.14 C7.22 361.49, 4.18 369.84, 0 381.33" stroke="#000000" stroke-width="1" fill="none"></path></g></g><mask></mask><g transform="translate(337.71668243408203 10) rotate(0 82.21991729736328 12)"><text x="0" y="0" font-family="Virgil, Segoe UI Emoji" font-size="20px" fill="#000000" text-anchor="start" style="white-space: pre;" direction="ltr" dominant-baseline="text-before-edge">Détecteurs (50)</text></g><g transform="translate(-34.94994354248047 275.33335876464844) rotate(270 56.94994354248047 12)"><text x="0" y="0" font-family="Virgil, Segoe UI Emoji" font-size="20px" fill="#000000" text-anchor="start" style="white-space: pre;" direction="ltr" dominant-baseline="text-before-edge">Pixels (100)</text></g></svg>