<svg version="1.1" xmlns="http://www.w3.org/2000/svg" viewBox="0 0 675.9999713897705 143.91665458679188" width="675.9999713897705" height="143.91665458679188">
  <!-- svg-source:excalidraw -->
  
  <defs>
    <style class="style-fonts">
      @font-face {
        font-family: "Virgil";
        src: url("https://excalidraw.com/Virgil.woff2");
      }
      @font-face {
        font-family: "Cascadia";
        src: url("https://excalidraw.com/Cascadia.woff2");
      }
    </style>
  </defs>
  <rect x="0" y="0" width="675.9999713897705" height="143.91665458679188" fill="#ffffff"></rect><g stroke-linecap="round"><g transform="translate(338.541699409485 -257.70832157135) rotate(270 -5.684341886080802e-14 327.2083559036255)"><path d="M0 0 C0 226.25, 0 452.49, 0 654.42 M0 0 C0 215.96, 0 431.92, 0 654.42" stroke="#000000" stroke-width="1" fill="none"></path></g></g><mask></mask><g stroke-linecap="round"><g transform="translate(338.5416536331177 -316.37493228912365) rotate(270 -5.684341886080802e-14 326.5416536331177)"><path d="M0 0 C0 259.26, 0 518.52, 0 653.08 M0 0 C0 177.27, 0 354.54, 0 653.08" stroke="#000000" stroke-width="1" fill="none"></path></g></g><mask></mask><g stroke-linecap="round"><g transform="translate(-19.333328247070312 40.16670608520508) rotate(270 29.333328247070312 0)"><path d="M0 0 C18.55 0, 37.11 0, 58.67 0 M0 0 C14.57 0, 29.15 0, 58.67 0" stroke="#000000" stroke-width="1" fill="none"></path></g></g><mask></mask><g stroke-linecap="round"><g transform="translate(28.333328247070312 39.5000648498534) rotate(270 29.333328247070312 0)"><path d="M0 0 C20.92 0, 41.84 0, 58.67 0 M0 0 C15.15 0, 30.29 0, 58.67 0" stroke="#000000" stroke-width="1" fill="none"></path></g></g><mask></mask><g stroke-linecap="round"><g transform="translate(74.16665649414068 40.50004196166992) rotate(270 29.333328247070284 0)"><path d="M0 0 C18.41 0, 36.82 0, 58.67 0 M0 0 C17.24 0, 34.49 0, 58.67 0" stroke="#000000" stroke-width="1" fill="none"></path></g></g><mask></mask><g stroke-linecap="round"><g transform="translate(121.83331298828148 39.83340072631836) rotate(270 29.333328247070312 0)"><path d="M0 0 C18.22 0, 36.44 0, 58.67 0 M0 0 C20.4 0, 40.8 0, 58.67 0" stroke="#000000" stroke-width="1" fill="none"></path></g></g><mask></mask><g stroke-linecap="round"><g transform="translate(168.41666412353516 40.00003051757801) rotate(270 29.333328247070312 0)"><path d="M0 0 C15 0, 30 0, 58.67 0 M0 0 C23.19 0, 46.38 0, 58.67 0" stroke="#000000" stroke-width="1" fill="none"></path></g></g><mask></mask><g stroke-linecap="round"><g transform="translate(216.08332061767567 39.333389282226676) rotate(270 29.333328247070312 0)"><path d="M0 0 C13.46 0, 26.93 0, 58.67 0 M0 0 C21.31 0, 42.63 0, 58.67 0" stroke="#000000" stroke-width="1" fill="none"></path></g></g><mask></mask><g stroke-linecap="round"><g transform="translate(261.916648864746 40.333366394042855) rotate(270 29.333328247070312 0)"><path d="M0 0 C20 0, 40 0, 58.67 0 M0 0 C17 0, 33.99 0, 58.67 0" stroke="#000000" stroke-width="1" fill="none"></path></g></g><mask></mask><g stroke-linecap="round"><g transform="translate(309.5833053588865 39.66672515869129) rotate(270 29.333328247070312 0)"><path d="M0 0 C13.94 0, 27.88 0, 58.67 0 M0 0 C15.67 0, 31.34 0, 58.67 0" stroke="#000000" stroke-width="1" fill="none"></path></g></g><mask></mask><g stroke-linecap="round"><g transform="translate(356.95831871032726 39.50000381469704) rotate(270 29.333328247070312 0)"><path d="M0 0 C19.07 0, 38.14 0, 58.67 0 M0 0 C13.52 0, 27.04 0, 58.67 0" stroke="#000000" stroke-width="1" fill="none"></path></g></g><mask></mask><g stroke-linecap="round"><g transform="translate(402.7916469573977 40.49998092651356) rotate(270 29.333328247070312 0)"><path d="M0 0 C12.06 0, 24.13 0, 58.67 0 M0 0 C18.22 0, 36.44 0, 58.67 0" stroke="#000000" stroke-width="1" fill="none"></path></g></g><mask></mask><g stroke-linecap="round"><g transform="translate(450.4583034515384 39.833339691161996) rotate(270 29.333328247070312 0)"><path d="M0 0 C11.8 0, 23.61 0, 58.67 0 M0 0 C20.63 0, 41.27 0, 58.67 0" stroke="#000000" stroke-width="1" fill="none"></path></g></g><mask></mask><g stroke-linecap="round"><g transform="translate(497.041654586792 39.99996948242165) rotate(270 29.333328247070312 0)"><path d="M0 0 C17.05 0, 34.1 0, 58.67 0 M0 0 C19.08 0, 38.16 0, 58.67 0" stroke="#000000" stroke-width="1" fill="none"></path></g></g><mask></mask><g stroke-linecap="round"><g transform="translate(544.7083110809326 39.33332824707031) rotate(270 29.333328247070312 0)"><path d="M0 0 C18.72 0, 37.45 0, 58.67 0 M0 0 C21 0, 42 0, 58.67 0" stroke="#000000" stroke-width="1" fill="none"></path></g></g><mask></mask><g stroke-linecap="round"><g transform="translate(590.5416393280029 40.33330535888649) rotate(270 29.333328247070312 0)"><path d="M0 0 C13.3 0, 26.6 0, 58.67 0 M0 0 C22.49 0, 44.99 0, 58.67 0" stroke="#000000" stroke-width="1" fill="none"></path></g></g><mask></mask><g stroke-linecap="round"><g transform="translate(636.6666431427002 40.41664314269997) rotate(270 29.333328247070312 0)"><path d="M0 0 C20.98 0, 41.97 0, 58.67 0 M0 0 C21.49 0, 42.97 0, 58.67 0" stroke="#000000" stroke-width="1" fill="none"></path></g></g><mask></mask><g transform="translate(273.08330726623535 83.25002861022938) rotate(0 71.7899169921875 12)"><text x="0" y="0" font-family="Virgil, Segoe UI Emoji" font-size="20px" fill="#000000" text-anchor="start" style="white-space: pre;" direction="ltr" dominant-baseline="text-before-edge">médiane = 13.5</text></g><g transform="translate(279.08330726623535 109.91665458679188) rotate(0 68.03993225097656 12)"><text x="0" y="0" font-family="Virgil, Segoe UI Emoji" font-size="20px" fill="#000000" text-anchor="start" style="white-space: pre;" direction="ltr" dominant-baseline="text-before-edge">réjection = 10</text></g><g transform="translate(308.41668128967285 31.58334159851063) rotate(0 9.519989013671875 12)"><text x="0" y="0" font-family="Virgil, Segoe UI Emoji" font-size="20px" fill="#000000" text-anchor="start" style="white-space: pre;" direction="ltr" dominant-baseline="text-before-edge">13</text></g><g transform="translate(356.41668128967285 31.91665458679188) rotate(0 9.109992980957031 12)"><text x="0" y="0" font-family="Virgil, Segoe UI Emoji" font-size="20px" fill="#000000" text-anchor="start" style="white-space: pre;" direction="ltr" dominant-baseline="text-before-edge">14</text></g><g transform="translate(30.4166202545166 29.91665458679188) rotate(0 2.7099990844726562 12)"><text x="0" y="0" font-family="Virgil, Segoe UI Emoji" font-size="20px" fill="#000000" text-anchor="start" style="white-space: pre;" direction="ltr" dominant-baseline="text-before-edge">1</text></g><g transform="translate(75.08330726623535 30.583311080932504) rotate(0 6.17999267578125 12)"><text x="0" y="0" font-family="Virgil, Segoe UI Emoji" font-size="20px" fill="#000000" text-anchor="start" style="white-space: pre;" direction="ltr" dominant-baseline="text-before-edge">5</text></g><g transform="translate(121.23665809631348 30.249998092651254) rotate(0 6.17999267578125 12)"><text x="0" y="0" font-family="Virgil, Segoe UI Emoji" font-size="20px" fill="#000000" text-anchor="start" style="white-space: pre;" direction="ltr" dominant-baseline="text-before-edge">5</text></g><g transform="translate(168.4166202545166 33.58334159851063) rotate(0 5.379997253417969 12)"><text x="0" y="0" font-family="Virgil, Segoe UI Emoji" font-size="20px" fill="#000000" text-anchor="start" style="white-space: pre;" direction="ltr" dominant-baseline="text-before-edge">7</text></g><g transform="translate(215.74993324279785 31.91665458679188) rotate(0 6.089996337890625 12)"><text x="0" y="0" font-family="Virgil, Segoe UI Emoji" font-size="20px" fill="#000000" text-anchor="start" style="white-space: pre;" direction="ltr" dominant-baseline="text-before-edge">9</text></g><g transform="translate(259.4166202545166 33.5833110809325) rotate(0 9.589996337890625 12)"><text x="0" y="0" font-family="Virgil, Segoe UI Emoji" font-size="20px" fill="#000000" text-anchor="start" style="white-space: pre;" direction="ltr" dominant-baseline="text-before-edge">10</text></g><g transform="translate(401.08330726623535 32.91665458679188) rotate(0 8.089996337890625 12)"><text x="0" y="0" font-family="Virgil, Segoe UI Emoji" font-size="20px" fill="#000000" text-anchor="start" style="white-space: pre;" direction="ltr" dominant-baseline="text-before-edge">17</text></g><g transform="translate(448.08330726623535 32.91665458679188) rotate(0 10.359992980957031 12)"><text x="0" y="0" font-family="Virgil, Segoe UI Emoji" font-size="20px" fill="#000000" text-anchor="start" style="white-space: pre;" direction="ltr" dominant-baseline="text-before-edge">18</text></g><g transform="translate(493.08330726623535 32.91665458679188) rotate(0 10.359992980957031 12)"><text x="0" y="0" font-family="Virgil, Segoe UI Emoji" font-size="20px" fill="#000000" text-anchor="start" style="white-space: pre;" direction="ltr" dominant-baseline="text-before-edge">18</text></g><g transform="translate(539.7499942779541 33.24996757507313) rotate(0 9.829994201660156 12)"><text x="0" y="0" font-family="Virgil, Segoe UI Emoji" font-size="20px" fill="#000000" text-anchor="start" style="white-space: pre;" direction="ltr" dominant-baseline="text-before-edge">21</text></g><g transform="translate(583.7499942779541 31.91665458679188) rotate(0 13.519989013671875 12)"><text x="0" y="0" font-family="Virgil, Segoe UI Emoji" font-size="20px" fill="#000000" text-anchor="start" style="white-space: pre;" direction="ltr" dominant-baseline="text-before-edge">26</text></g><g transform="translate(630.0833072662354 32.5833110809325) rotate(0 12.499992370605469 24)"><text x="0" y="0" font-family="Virgil, Segoe UI Emoji" font-size="20px" fill="#000000" text-anchor="start" style="white-space: pre;" direction="ltr" dominant-baseline="text-before-edge">27</text><text x="0" y="24" font-family="Virgil, Segoe UI Emoji" font-size="20px" fill="#000000" text-anchor="start" style="white-space: pre;" direction="ltr" dominant-baseline="text-before-edge"></text></g><g stroke-linecap="round" transform="translate(59.7499942779541 26.91665458679188) rotate(0 255 17)"><path d="M8.5 0 M8.5 0 C155.74 0, 302.98 0, 501.5 0 M8.5 0 C146.01 0, 283.51 0, 501.5 0 M501.5 0 C507.17 0, 510 2.83, 510 8.5 M501.5 0 C507.17 0, 510 2.83, 510 8.5 M510 8.5 C510 15.13, 510 21.75, 510 25.5 M510 8.5 C510 15.11, 510 21.72, 510 25.5 M510 25.5 C510 31.17, 507.17 34, 501.5 34 M510 25.5 C510 31.17, 507.17 34, 501.5 34 M501.5 34 C400.41 34, 299.31 34, 8.5 34 M501.5 34 C363.79 34, 226.07 34, 8.5 34 M8.5 34 C2.83 34, 0 31.17, 0 25.5 M8.5 34 C2.83 34, 0 31.17, 0 25.5 M0 25.5 C0 22.01, 0 18.51, 0 8.5 M0 25.5 C0 19.1, 0 12.7, 0 8.5 M0 8.5 C0 2.83, 2.83 0, 8.5 0 M0 8.5 C0 2.83, 2.83 0, 8.5 0" stroke="#2b8a3e" stroke-width="1" fill="none"></path></g></svg>